<svg xmlns="http://www.w3.org/2000/svg" viewBox="0 0 32 32">
  <rect width="32" height="32" fill="#000000" rx="4"/>
  <path d="M16 5 C15 9 11 13 11 18 C11 23 13.5 27 16 27 C18.5 27 21 23 21 18 C21 13 17 9 16 5Z" fill="#b8862a"/>
  <path d="M16 9 C15.2 12 13.5 15 13.5 18 C13.5 21.5 14.8 24.5 16 24.5 C17.2 24.5 18.5 21.5 18.5 18 C18.5 15 16.8 12 16 9Z" fill="#e8b84b"/>
  <path d="M16 13 C15.5 15 14.8 16.5 14.8 18.5 C14.8 20.5 15.5 22 16 22 C16.5 22 17.2 20.5 17.2 18.5 C17.2 16.5 16.5 15 16 13Z" fill="#fde89a"/>
</svg>
